<svg width="1997" height="916" viewBox="0 0 1997 916" fill="none" xmlns="http://www.w3.org/2000/svg">
<rect x="945.439" y="100.22" width="1050.96" height="626.698" rx="184.568" fill="#4E1717"/>
<rect x="1114.46" y="646.629" width="76.9258" height="45.8717" rx="13.5096" fill="white"/>
<rect x="1229.31" y="646.629" width="76.9258" height="45.8717" rx="13.5096" fill="white"/>
<rect x="1344.15" y="646.629" width="76.9258" height="45.8717" rx="13.5096" fill="white"/>
<rect x="1459" y="646.629" width="76.9258" height="45.8717" rx="13.5096" fill="white"/>
<rect x="1573.85" y="646.629" width="76.9258" height="45.8717" rx="13.5096" fill="white"/>
<rect x="1688.69" y="646.629" width="76.9258" height="45.8717" rx="13.5096" fill="white"/>
<rect x="1788.37" y="646.629" width="76.9258" height="45.8717" rx="13.5096" fill="white"/>
<rect x="1459" y="646.629" width="76.9258" height="45.8717" rx="13.5096" fill="white"/>
<rect x="1099.29" y="136.648" width="76.9258" height="45.8717" rx="13.5096" fill="white"/>
<rect x="1214.14" y="136.648" width="76.9258" height="45.8717" rx="13.5096" fill="white"/>
<rect x="1328.98" y="136.648" width="76.9258" height="45.8717" rx="13.5096" fill="white"/>
<rect x="1443.83" y="136.648" width="76.9258" height="45.8717" rx="13.5096" fill="white"/>
<rect x="1558.68" y="136.648" width="76.9258" height="45.8717" rx="13.5096" fill="white"/>
<rect x="1673.52" y="136.648" width="76.9258" height="45.8717" rx="13.5096" fill="white"/>
<rect x="1788.37" y="136.648" width="76.9258" height="45.8717" rx="13.5096" fill="white"/>
<path d="M1162.22 459.991H1070.8V554.424H1023.19V323.342H1173.65V361.908H1070.8V421.583H1162.22V459.991ZM1251.89 554.424H1204.28V323.342H1251.89V554.424ZM1343.78 516.175H1444.88V554.424H1296.17V323.342H1343.78V516.175ZM1534.55 323.342L1593.91 490.94L1652.95 323.342H1715.48V554.424H1667.71V491.257L1672.47 382.223L1610.1 554.424H1577.4L1515.19 382.382L1519.95 491.257V554.424H1472.34V323.342H1534.55ZM1876.89 493.797C1876.89 484.803 1873.72 477.926 1867.37 473.164C1861.02 468.297 1849.59 463.218 1833.09 457.928C1816.58 452.532 1803.51 447.242 1793.88 442.057C1767.64 427.879 1754.52 408.781 1754.52 384.763C1754.52 372.277 1758.02 361.168 1765 351.433C1772.09 341.593 1782.19 333.922 1795.31 328.42C1808.54 322.919 1823.35 320.168 1839.75 320.168C1856.26 320.168 1870.97 323.183 1883.87 329.214C1896.78 335.139 1906.78 343.551 1913.87 354.449C1921.06 365.347 1924.66 377.726 1924.66 391.587H1877.05C1877.05 381.006 1873.72 372.806 1867.05 366.987C1860.38 361.062 1851.02 358.099 1838.96 358.099C1827.32 358.099 1818.27 360.586 1811.82 365.559C1805.37 370.426 1802.14 376.88 1802.14 384.921C1802.14 392.434 1805.89 398.729 1813.41 403.808C1821.02 408.887 1832.19 413.648 1846.89 418.092C1873.98 426.239 1893.71 436.343 1906.09 448.405C1918.47 460.467 1924.66 475.492 1924.66 493.479C1924.66 513.477 1917.1 529.189 1901.97 540.616C1886.84 551.937 1866.47 557.598 1840.86 557.598C1823.09 557.598 1806.9 554.371 1792.3 547.917C1777.7 541.357 1766.53 532.416 1758.81 521.095C1751.19 509.773 1747.38 496.653 1747.38 481.735H1795.15C1795.15 507.234 1810.39 519.984 1840.86 519.984C1852.18 519.984 1861.02 517.709 1867.37 513.159C1873.72 508.504 1876.89 502.049 1876.89 493.797Z" fill="white"/>
<path d="M362.621 609.729H162.265L124.175 724H2.66633L209.117 169.403H315.008L522.601 724H401.092L362.621 609.729ZM193.119 517.169H331.768L262.062 309.576L193.119 517.169Z" fill="#4E1717"/>
<path d="M641.951 632.202H921.535V724H499.112V656.961L773.363 261.963H499.493V169.403H915.44V234.919L641.951 632.202Z" fill="#4E1717"/>
</svg>
